<svg width="26" height="26" fill="none" xmlns="http://www.w3.org/2000/svg"><g clip-path="url(#a)"><path fill-rule="evenodd" clip-rule="evenodd" d="M13 0c7.18 0 13 5.967 13 13.329 0 5.887-3.72 10.882-8.883 12.646-.659.131-.893-.285-.893-.64 0-.439.016-1.874.016-3.658 0-1.243-.416-2.054-.883-2.467 2.895-.33 5.937-1.457 5.937-6.577 0-1.456-.504-2.644-1.339-3.577.135-.337.581-1.693-.127-3.528 0 0-1.09-.358-3.572 1.366A12.215 12.215 0 0 0 13 6.445a12.188 12.188 0 0 0-3.254.45C7.262 5.17 6.17 5.527 6.17 5.527c-.706 1.835-.26 3.19-.126 3.528-.831.933-1.34 2.121-1.34 3.577 0 5.107 3.036 6.251 5.923 6.588-.371.332-.708.92-.825 1.782-.741.34-2.623.93-3.783-1.108 0 0-.688-1.28-1.993-1.374 0 0-1.267-.017-.088.81 0 0 .851.41 1.443 1.95 0 0 .763 2.38 4.38 1.573.006 1.114.018 2.164.018 2.481 0 .353-.24.765-.888.642C3.724 24.215 0 19.217 0 13.329 0 5.967 5.821 0 13 0z" fill="#CD5C5C"/></g><defs><clipPath id="a"><path fill="#fff" d="M0 0h26v26H0z"/></clipPath></defs></svg>