<svg width="26" height="26" fill="none" xmlns="http://www.w3.org/2000/svg"><g clip-path="url(#a)"><path fill-rule="evenodd" clip-rule="evenodd" d="M26 26h-5.2v-9.099c0-2.496-1.101-3.888-3.076-3.888-2.149 0-3.424 1.45-3.424 3.888V26H9.1V9.1h5.2V11s1.631-2.862 5.308-2.862c3.678 0 6.392 2.244 6.392 6.887V26zM3.175 6.397C1.42 6.397 0 4.965 0 3.198 0 1.433 1.42 0 3.175 0c1.752 0 3.173 1.433 3.173 3.198.001 1.767-1.421 3.2-3.173 3.2zM0 26h6.5V9.1H0V26z" fill="#CD5C5C"/></g><defs><clipPath id="a"><path fill="#fff" d="M0 0h26v26H0z"/></clipPath></defs></svg>